<?xml version="1.0" standalone="no"?>
<!DOCTYPE svg PUBLIC "-//W3C//DTD SVG 20010904//EN"
 "http://www.w3.org/TR/2001/REC-SVG-20010904/DTD/svg10.dtd">
<svg version="1.0" xmlns="http://www.w3.org/2000/svg"
 width="320.000000pt" height="320.000000pt" viewBox="0 0 320.000000 320.000000"
 preserveAspectRatio="xMidYMid meet">
<metadata>
Created by potrace 1.14, written by Peter Selinger 2001-2017
</metadata>
<g transform="translate(0.000000,320.000000) scale(0.100000,-0.100000)"
fill="#000000" stroke="none">
<path d="M1469 3186 c-2 -2 -34 -7 -71 -10 -221 -22 -476 -119 -691 -262 -94
-63 -278 -233 -351 -324 -53 -65 -136 -198 -180 -287 -38 -76 -116 -278 -115
-301 0 -4 -5 -27 -11 -52 -39 -161 -49 -402 -24 -569 54 -358 200 -648 453
-901 175 -174 337 -280 568 -371 236 -93 595 -122 853 -69 501 102 904 411
1127 863 74 150 130 335 150 498 10 80 10 315 1 389 -60 465 -315 877 -703
1137 -165 110 -390 201 -575 233 -36 6 -76 13 -90 16 -30 6 -336 15 -341 10z"/>
</g>
</svg>
